<svg width="66" height="71" xmlns="http://www.w3.org/2000/svg" fill="none">
 <g>
  <title>Layer 1</title>
  <path d="m24.2775,19.80538c0.8223,-3.0682 3.9762,-6.2221 7.0445,-7.0444l19.1289,-5.12637c3.0683,-0.82227 4.889,0.99848 4.0668,4.06677l-5.1264,19.129c-0.8223,3.0682 -3.9762,6.2221 -7.0444,7.0444l-19.129,5.1264c-3.0683,0.8222 -4.889,-0.9985 -4.0668,-4.0668l5.1264,-19.129z" fill="#B8B8FF" id="svg_2"/>
  <path d="m16.6088,12.6493c0.8223,-3.06823 3.9762,-6.22213 7.0445,-7.04439l19.1289,-5.12637c3.0683,-0.82226 4.8891,0.99848 4.0668,4.06675l-5.1264,19.12901c-0.8222,3.0682 -3.9761,6.2221 -7.0444,7.0444l-19.129,5.1264c-3.0683,0.8222 -4.889,-0.9985 -4.0668,-4.0668l5.1264,-19.129z" fill="#5051F9" id="svg_3"/>
  <text font-weight="bold" transform="matrix(1.16057 0 0 0.738325 -24.8693 9.92468)" stroke="#000" xml:space="preserve" text-anchor="start" font-family="'Roboto Mono'" font-size="18" id="svg_1" y="70.93635" x="23.57058" stroke-width="0" fill="#000000">Habit</text>
 </g>

</svg>